<svg xmlns="http://www.w3.org/2000/svg" xmlns:xlink="http://www.w3.org/1999/xlink" width="787.074" height="799.357" viewBox="0 0 787.074 799.357">
  <defs>
    <clipPath id="clip-path">
      <rect id="Rectangle_7" data-name="Rectangle 7" width="782.272" height="543.245" transform="translate(3263.076 524.698)" fill="none"/>
    </clipPath>
  </defs>
  <g id="dorosi_logo" transform="translate(-3258.274 -524.698)">
    <g id="Group_10" data-name="Group 10">
      <g id="Group_9" data-name="Group 9">
        <g id="Group_8" data-name="Group 8" clip-path="url(#clip-path)">
          <path id="Path_32" data-name="Path 32" d="M3850.051,841.38c-3.047-27.946,10.262-44.7,15.452-50.128a60.514,60.514,0,0,0,118.609,4.5c4.83,8.722,13.19,26.528,11.2,45.632,50.582-.482,25.562-58.369-9.779-64.737-.362-2.957-.6-5.884-1.207-8.721-2.113-18.259-18.5-55.411-65.431-54.355-40.411.936-49.254,31.478-51.4,49.978a62.48,62.48,0,0,0-2.686,14.275c-52.725,9.206-46.81,62.595-14.759,63.56Zm46.689-77.11s5.191,1.872,5.191,18.741c8.964,3.079,24.417-26.286,24.417-26.286v23.118c10.018,2.686,41.135-.845,41.135-.845l1.057.936c0,.483.241,1.086.241,1.538a43.509,43.509,0,0,1-87.01.937c8.6-3.169,14.969-18.139,14.969-18.139Zm0,0" fill="#f62147"/>
        </g>
      </g>
      <path id="Path_33" data-name="Path 33" d="M3938.722,850.223h-46.931l-62.715,75.451,13.672,18.5,46.689-53.661,2.716,21.247-8.722,14.728,49.858,11.891,35.372-9.416-11.2-17.2,1.991-26.075,36.669,48.921L4020.3,928.6l-58.005-78.378Zm0,0" fill="#f62147"/>
      <path id="Path_34" data-name="Path 34" d="M3874.1,990.139l108.348-31.116-7.545-26.528L3936.94,943.45l-8.48,2.475-62.02,17.807Zm99.107,51.066" fill="#f62147"/>
      <path id="Path_35" data-name="Path 35" d="M3877.515,929.446l-6.247,26.861,5.07,1.177,53.993-15.543Zm0,0" fill="#f62147"/>
      <path id="Path_36" data-name="Path 36" d="M3944.124,973.419l40.2,9.417,6.247-26.77-5.885-1.418.935,3.44.966,3.169-3.2.845Zm50.372,350.636" fill="#f62147"/>
      <path id="Path_37" data-name="Path 37" d="M3653.185,986.728,3766,954.2l-8.029-27.465L3718.5,938.169l-56.136,16.146-17.082,4.95Zm246.715,53.345" fill="#55a699"/>
      <path id="Path_38" data-name="Path 38" d="M3774.36,951.236l-6.126-1.418.965,3.441.936,3.29-3.2.935-40.9,11.8,41.861,9.777Zm0,0" fill="#55a699"/>
      <path id="Path_39" data-name="Path 39" d="M3656.717,923.531l-6.609,27.827,5.432,1.3,56.106-16.147Zm0,0" fill="#55a699"/>
      <path id="Path_40" data-name="Path 40" d="M3649.866,770.034a55.125,55.125,0,1,0,110.249,0c0-18.983,6.609-36.306-8.029-46.205-8.721-6.006-47.382-8.843-58.821-8.843-13.551,0-31.237,11.076-40.8,19.224-12.012,10.14-2.595,18.984-2.595,35.824Zm16.75-5.281c10.141-1.9,16.992,1.389,16.992,1.389l16.961-8.241s-8.6,12.5-.815,8.241c17.2-5.766,36.428-3.291,46.205-1.389a39.114,39.114,0,0,1,.7,6.58c0,22.754-18.017,41.044-40.411,41.044-22.3,0-40.321-18.29-40.321-41.044a39.215,39.215,0,0,1,.694-6.58Zm0,0" fill="#55a699"/>
      <path id="Path_41" data-name="Path 41" d="M3806.441,913.631l-62.594-76.868h-72.855l-76.416,83.72,16.055,16.509L3665.2,890.3l.362,32.052,49.526,11.558,35.462-8.481.241-33.379,43.731,44.818Zm0,0" fill="#55a699"/>
      <path id="Path_42" data-name="Path 42" d="M3448.625,582.705a58.052,58.052,0,1,1-58.1-58.006,58.148,58.148,0,0,1,58.1,58.006Zm-5,0" fill="#365a7e"/>
      <path id="Path_43" data-name="Path 43" d="M3332.852,895.252,3302.793,961.5l18.169,8.239,33.952-74.485h49.647l32.534,74.395,18.259-8.029-29-66.366h21.1V865.193H3332.852l-40.652-162.7-29.124,7.3L3309.4,895.252Zm0,0" fill="#d35509"/>
      <path id="Path_44" data-name="Path 44" d="M3361.976,658.88,3352.2,856.229h140.64v122.14h52.242V815.547H3435.315l.362-98.328,56.346,52.815v-.121l4.588-1.991-8.24,10.623,96.065-7.786,83.477-107.412h-.573l-21.7-39.143-27.827,43.156-45.873,3.774-35.825,46.085-43.278,18.047-64.827-76.386Zm153.377,101.376,50.461-20.975-11.891-28.642,23.087-29.847,69.083-5.644-66.94,86.044-68.961,5.674Zm0,0" fill="#365a7e"/>
      <rect id="Rectangle_8" data-name="Rectangle 8" width="763.975" height="8.022" transform="translate(3258.274 1053.804)" fill="#70a0af"/>
    </g>
    <path id="Path_109" data-name="Path 109" d="M98.981-130.541a54.168,54.168,0,0,0-11.067-1.68,13.091,13.091,0,0,0-8.5,3.162,12.366,12.366,0,0,0-4.644,9.98q0,4.743,8.5,18.281t8.5,24.9A33.818,33.818,0,0,1,79.217-48.82Q67.261-38.642,49.671-38.642q-16.206,0-23.914-2.273-.889-4.546-3.063-14.822-1.383-5.534-3.854-14.724,10.87,2.668,14.625,2.668,14.724,0,14.724-11.166A20.854,20.854,0,0,0,42.26-93.485q-9.684-8.5-19.368-17.1-18.775-16.6-18.775-39.428,0-23.815,17.787-36.068,15.514-10.672,41.305-10.672A145.564,145.564,0,0,1,96.016-192.5Z" transform="translate(3850.562 1343.511)" fill="#365a7e"/>
    <path id="Path_110" data-name="Path 110" d="M138.308-120.041q0,35.1-18.1,59.364Q101.218-35.32,71.586-35.32q-30.527,0-49.42-25.555-17.8-24.064-17.8-59.165,0-37.488,19.39-58.867,18.3-20.086,47.829-20.086,29.036,0,47.332,20.186Q138.308-157.329,138.308-120.041Zm-47.829,17.5q0-27.643-18.694-27.643-18.2,0-18.2,27.842a46.218,46.218,0,0,0,4.773,20.782Q63.73-70.72,71.586-70.72q7.657,0,13.523-11.037A43.537,43.537,0,0,0,90.479-102.54Z" transform="translate(3436.272 1345.757)" fill="#83ceb3"/>
    <path id="Path_111" data-name="Path 111" d="M138.308-120.041q0,35.1-18.1,59.364Q101.218-35.32,71.586-35.32q-30.527,0-49.42-25.555-17.8-24.064-17.8-59.165,0-37.488,19.39-58.867,18.3-20.086,47.829-20.086,29.036,0,47.332,20.186Q138.308-157.329,138.308-120.041Zm-47.829,17.5q0-27.643-18.694-27.643-18.2,0-18.2,27.842a46.218,46.218,0,0,0,4.773,20.782Q63.73-70.72,71.586-70.72q7.657,0,13.523-11.037A43.537,43.537,0,0,0,90.479-102.54Z" transform="translate(3715.629 1345.757)" fill="#83ceb3"/>
    <path id="Path_112" data-name="Path 112" d="M134.53-137.048a52.123,52.123,0,0,1-9.925,31.414,49.287,49.287,0,0,1-21.971,17.153q2.795,4.336,13.78,18.213A224.453,224.453,0,0,0,133.181-53.5q-4.529,1.638-19.947,8.287Q102.441-40.3,92.9-35.578,90.107-39.047,80.471-53.5,76.038-60.825,67.462-78.17h-.193l-.964,33.727H12.053q-1.06-21.007-2.987-69.285Q8.2-142.155,5.115-192.456a464.463,464.463,0,0,1,48.374-2.795Q134.53-195.251,134.53-137.048ZM90.782-116.233q0-9.154-7.709-13.105-5.685-2.891-14.262-2.505l-.578,32.956a28.316,28.316,0,0,0,14.262-3.565Q90.782-107.079,90.782-116.233Z" transform="translate(3577.465 1346.014)" fill="#f5284e"/>
    <path id="Path_113" data-name="Path 113" d="M175.538-94.319q0,45.039-27.946,70.864Q118.772,3.369,66.373,3.369,32.687,3.369,14.347,0L10.979-92.7q-1.622-35.682-5.864-98.436A399.471,399.471,0,0,1,61.632-195q52.524,0,82.217,24.453Q175.538-144.348,175.538-94.319ZM124.386-78.974q0-18.34-11.852-27.073-9.856-7.236-25.2-6.612L85.586-34.434q15.969-1,26.075-10.355Q124.386-56.392,124.386-78.974Z" transform="translate(3257.101 1301.501)" fill="#f33194"/>
    <rect id="Rectangle_9" data-name="Rectangle 9" width="763.975" height="3.492" transform="translate(3258.274 1067.943)" fill="#70a0af"/>
    <rect id="Rectangle_10" data-name="Rectangle 10" width="0.994" height="0.015" transform="translate(3298.414 1129.926)" fill="#fff"/>
    <rect id="Rectangle_11" data-name="Rectangle 11" height="0.994" transform="translate(3323.73 1154.262)" fill="#fff"/>
    <path id="Path_45" data-name="Path 45" d="M3282.35,1129.94a8.282,8.282,0,0,0-8.258,8.258v16.064h24.322V1129.94Zm10.507,13.866h-4.544l-.135,4.78h-3.837q0-.858-.067-4.78h-4.342l-.825-4.039h5.032L3284,1134.9h4.578l-.135,4.864h5.167Z" fill="#fff"/>
    <path id="Path_46" data-name="Path 46" d="M3315.472,1129.94h-16.064v24.322h24.322V1138.2A8.282,8.282,0,0,0,3315.472,1129.94Zm-5.466,3.861a3.4,3.4,0,0,1,2.129-.665,3.156,3.156,0,0,1,2,.657,2.184,2.184,0,0,1,.875,1.767,2.1,2.1,0,0,1-.866,1.7,3.138,3.138,0,0,1-2.012.69,3.336,3.336,0,0,1-2.1-.69,2.108,2.108,0,0,1-.892-1.734A2.079,2.079,0,0,1,3310.006,1133.8Zm4.141,15.963a3.138,3.138,0,0,1-2.012.69,3.336,3.336,0,0,1-2.1-.69,2.124,2.124,0,0,1-.026-3.442,3.4,3.4,0,0,1,2.129-.664,3.174,3.174,0,0,1,2.02.673,2.14,2.14,0,0,1-.008,3.433Zm5.292-5.958h-14.507l-.824-4.039H3320.2Z" fill="#fff"/>
    <path id="Path_47" data-name="Path 47" d="M3299.408,1155.256v24.308h-.994v-24.308h-24.322v16.065a8.282,8.282,0,0,0,8.258,8.257h33.122a8.282,8.282,0,0,0,8.258-8.257v-16.065Zm-7.931,16.677H3280l-.3-4.005h12.134Zm.555-6.648h-12.588l-.337-3.9h13.262Zm26.3,5.453-3.467,2.2-3.114-3.332-3.584,3.164-2.609-2.794,3.45-3.315-2.962-3.181,2.39-3.35,3.433,3.67,3.45-3.417,3.131,3.366-3.653,3.214Z" fill="#fff"/>
    <path id="Path_48" data-name="Path 48" d="M3315.245,1185.092h-32.668a8.51,8.51,0,0,0-8.485,8.485v32.653a8.51,8.51,0,0,0,8.485,8.485h32.668a8.51,8.51,0,0,0,8.485-8.485v-32.653A8.51,8.51,0,0,0,3315.245,1185.092Zm-6.189,42.133a12.71,12.71,0,0,1-5.512.9c-7.834,0-14.442-3.557-14.442-11.536,0-4.05,2.256-7.391,5.35-9.989-3.481-2.381-4.835-4.051-4.835-6.742a9.675,9.675,0,0,1,1.451-4.732,7.126,7.126,0,0,1,6-3.618c2.835,0,4.964,1.361,6.93,3.9l-.516.649a11.953,11.953,0,0,0-5-1.021c-3.578,0-6.447,1.732-6.447,3,0,1.392.838,2.505,2.805,3.928a9.564,9.564,0,0,0,3.417,1.67,4.384,4.384,0,0,0,1.773-.557c2.9-1.33,5.8-2.536,8.7-3.587l.161.093-1.224,4.051a75.677,75.677,0,0,0-10.962,4.887c-3.255,1.886-5.416,4.422-5.416,6.834,0,5.2,5.932,8.752,14.733,8.752a35.49,35.49,0,0,0,8.221-.9l.225.557A50.982,50.982,0,0,1,3309.056,1227.225Z" fill="#fff"/>
    <path id="Path_49" data-name="Path 49" d="M3314.748,1240.229H3282.08a8.51,8.51,0,0,0-8.485,8.485v32.653a8.51,8.51,0,0,0,8.485,8.485h32.668a8.51,8.51,0,0,0,8.485-8.485v-32.653A8.51,8.51,0,0,0,3314.748,1240.229Zm-17.946,33.324h-14.9v-19.968h14.438v2.357h-11.8v6.116h11.047v2.342h-11.047v6.8H3296.8Zm19.355,0h-2.711l-10.488-15.69v15.69h-2.534v-19.968h2.711l10.488,15.678v-15.678h2.534Z" fill="#fff"/>
    <g id="Group_26" data-name="Group 26" transform="translate(5 -4)">
      <g id="Group_12" data-name="Group 12">
        <g id="Group_11" data-name="Group 11">
          <path id="Path_50" data-name="Path 50" d="M3486.271,1197.922a6.021,6.021,0,0,1-1.691,4.008,5.691,5.691,0,0,1-4.013,1.655,1.626,1.626,0,0,0,0,3.252,8.871,8.871,0,0,0,6.274-2.57,9.269,9.269,0,0,0,2.679-6.422,1.667,1.667,0,0,0-1.655-1.575A1.637,1.637,0,0,0,3486.271,1197.922Z" fill="#fff"/>
          <circle id="Ellipse_5" data-name="Ellipse 5" cx="2.247" cy="2.247" r="2.247" transform="translate(3473.61 1201.136)" fill="#fff"/>
          <path id="Path_51" data-name="Path 51" d="M3534.555,1197.938a5.975,5.975,0,0,1-1.687,3.992,5.712,5.712,0,0,1-4.019,1.655,1.626,1.626,0,0,0,0,3.252,8.894,8.894,0,0,0,6.279-2.57,9.275,9.275,0,0,0,2.677-6.422,1.7,1.7,0,0,0-1.669-1.578A1.627,1.627,0,0,0,3534.555,1197.938Z" fill="#fff"/>
          <circle id="Ellipse_6" data-name="Ellipse 6" cx="2.247" cy="2.247" r="2.247" transform="translate(3521.892 1201.136)" fill="#fff"/>
          <path id="Path_52" data-name="Path 52" d="M3527.221,1177.637a19.416,19.416,0,0,0-18.493,13.581,12.592,12.592,0,0,0-6.562-1.455,12.86,12.86,0,0,0-5.068,1.375,19.391,19.391,0,1,0,.863,7.244,7.743,7.743,0,0,1,4.6-2.134c1.74-.129,3.507.658,5.324,2.236a19.384,19.384,0,1,0,19.331-20.847Zm-48.589,32.263a12.881,12.881,0,1,1,12.885-12.879A12.9,12.9,0,0,1,3478.632,1209.9Zm48.589,0a12.881,12.881,0,1,1,12.885-12.879A12.891,12.891,0,0,1,3527.221,1209.9Z" fill="#fff"/>
        </g>
      </g>
      <path id="Path_53" data-name="Path 53" d="M3526.385,1188.293a4.892,4.892,0,0,0-2.45.673,1.587,1.587,0,1,1-1.973,2.1,4.9,4.9,0,0,0-.526,2.179,4.949,4.949,0,1,0,4.949-4.949Z" fill="#fff"/>
      <path id="Path_54" data-name="Path 54" d="M3478.658,1188.293a4.9,4.9,0,0,0-2.451.673,1.587,1.587,0,1,1-1.972,2.1,4.883,4.883,0,0,0-.526,2.179,4.949,4.949,0,1,0,4.949-4.949Z" fill="#fff"/>
    </g>
    <g id="Group_27" data-name="Group 27" transform="translate(5 -4)">
      <g id="Group_14" data-name="Group 14">
        <g id="Group_13" data-name="Group 13">
          <path id="Path_55" data-name="Path 55" d="M3763.09,1197.922a6.022,6.022,0,0,1-1.69,4.008,5.691,5.691,0,0,1-4.014,1.655,1.626,1.626,0,0,0,0,3.252,8.87,8.87,0,0,0,6.274-2.57,9.263,9.263,0,0,0,2.679-6.422,1.667,1.667,0,0,0-1.654-1.575A1.637,1.637,0,0,0,3763.09,1197.922Z" fill="#fff"/>
          <circle id="Ellipse_7" data-name="Ellipse 7" cx="2.247" cy="2.247" r="2.247" transform="translate(3750.43 1201.136)" fill="#fff"/>
          <path id="Path_56" data-name="Path 56" d="M3811.375,1197.938a5.976,5.976,0,0,1-1.688,3.992,5.711,5.711,0,0,1-4.019,1.655,1.626,1.626,0,0,0,0,3.252,8.894,8.894,0,0,0,6.279-2.57,9.267,9.267,0,0,0,2.677-6.422,1.7,1.7,0,0,0-1.668-1.578A1.626,1.626,0,0,0,3811.375,1197.938Z" fill="#fff"/>
          <circle id="Ellipse_8" data-name="Ellipse 8" cx="2.247" cy="2.247" r="2.247" transform="translate(3798.712 1201.136)" fill="#fff"/>
          <path id="Path_57" data-name="Path 57" d="M3804.041,1177.637a19.415,19.415,0,0,0-18.493,13.581,12.594,12.594,0,0,0-6.562-1.455,12.864,12.864,0,0,0-5.069,1.375,19.391,19.391,0,1,0,.863,7.244,7.747,7.747,0,0,1,4.606-2.134c1.74-.129,3.507.658,5.323,2.236a19.384,19.384,0,1,0,19.332-20.847Zm-48.589,32.263a12.881,12.881,0,1,1,12.885-12.879A12.9,12.9,0,0,1,3755.452,1209.9Zm48.589,0a12.881,12.881,0,1,1,12.884-12.879A12.891,12.891,0,0,1,3804.041,1209.9Z" fill="#fff"/>
        </g>
      </g>
      <path id="Path_58" data-name="Path 58" d="M3803.205,1188.293a4.9,4.9,0,0,0-2.451.673,1.587,1.587,0,1,1-1.973,2.1,4.9,4.9,0,0,0-.526,2.179,4.95,4.95,0,1,0,4.95-4.949Z" fill="#fff"/>
      <path id="Path_59" data-name="Path 59" d="M3755.477,1188.293a4.892,4.892,0,0,0-2.45.673,1.587,1.587,0,1,1-1.973,2.1,4.9,4.9,0,0,0-.526,2.179,4.949,4.949,0,1,0,4.949-4.949Z" fill="#fff"/>
    </g>
    <path id="Path_60" data-name="Path 60" d="M3966.508,1278.611l1.6,2.663,14.665,25.061a4.177,4.177,0,0,0,6.656,1.065c.278-.266.534-.8.812-1.065l14.921-24.794,1.332-2.4,1.6-2.662,1.329-2.136-5.591,2.136-5.069,1.864a5.437,5.437,0,0,1-2.93,0l-6.4-1.864-1.6-.533a4.463,4.463,0,0,0-2.663,0l-1.332.533-6.667,1.864a3.147,3.147,0,0,1-2.663-.266l-5.335-1.865-5.592-2.135,1.332,2.135Z" fill="#1d1a26" fill-rule="evenodd"/>
    <path id="Path_61" data-name="Path 61" d="M3953.5,1158.122l8.472,110.092,20,.267.8-95.7h8l-.809,95.7h20l10.338-109.826Z" fill="#d35509" fill-rule="evenodd"/>
    <path id="Path_62" data-name="Path 62" d="M4014.44,1136.8l-56.416-.267a5.7,5.7,0,0,0-3.194,1.066,5.535,5.535,0,0,0-1.332,3.195v8l66.8.531V1139.2c0-2.4-3.461-2.4-5.858-2.4Z" fill="#1d1a26" fill-rule="evenodd"/>
  </g>
</svg>
