<svg id="rating_bar" xmlns="http://www.w3.org/2000/svg" width="95.176" height="15.176" viewBox="0 0 95.176 15.176">
  <path id="star_3_" data-name="star (3)" d="M14.846,7.924a1.163,1.163,0,0,0,.275-1.164,1.1,1.1,0,0,0-.879-.773l-3.674-.557a.482.482,0,0,1-.362-.274L8.563,1.68a1.069,1.069,0,0,0-1.952,0L4.968,5.155a.482.482,0,0,1-.362.274L.932,5.987a1.1,1.1,0,0,0-.879.773A1.163,1.163,0,0,0,.329,7.925l2.659,2.7a.516.516,0,0,1,.139.444L2.5,14.893a1.147,1.147,0,0,0,.237.921,1.068,1.068,0,0,0,1.342.276l3.286-1.8a.474.474,0,0,1,.447,0l3.286,1.8a1.041,1.041,0,0,0,.506.132,1.074,1.074,0,0,0,.835-.409,1.147,1.147,0,0,0,.237-.921l-.628-3.819a.516.516,0,0,1,.139-.444Z" transform="translate(0.001 -1.047)" fill="#ffd500"/>
  <path id="star_3_2" data-name="star (3)" d="M14.846,7.924a1.163,1.163,0,0,0,.275-1.164,1.1,1.1,0,0,0-.879-.773l-3.674-.557a.482.482,0,0,1-.362-.274L8.563,1.68a1.069,1.069,0,0,0-1.952,0L4.968,5.155a.482.482,0,0,1-.362.274L.932,5.987a1.1,1.1,0,0,0-.879.773A1.163,1.163,0,0,0,.329,7.925l2.659,2.7a.516.516,0,0,1,.139.444L2.5,14.893a1.147,1.147,0,0,0,.237.921,1.068,1.068,0,0,0,1.342.276l3.286-1.8a.474.474,0,0,1,.447,0l3.286,1.8a1.041,1.041,0,0,0,.506.132,1.074,1.074,0,0,0,.835-.409,1.147,1.147,0,0,0,.237-.921l-.628-3.819a.516.516,0,0,1,.139-.444Z" transform="translate(20.001 -1.047)" fill="#ffd500"/>
  <path id="star_3_3" data-name="star (3)" d="M14.846,7.924a1.163,1.163,0,0,0,.275-1.164,1.1,1.1,0,0,0-.879-.773l-3.674-.557a.482.482,0,0,1-.362-.274L8.563,1.68a1.069,1.069,0,0,0-1.952,0L4.968,5.155a.482.482,0,0,1-.362.274L.932,5.987a1.1,1.1,0,0,0-.879.773A1.163,1.163,0,0,0,.329,7.925l2.659,2.7a.516.516,0,0,1,.139.444L2.5,14.893a1.147,1.147,0,0,0,.237.921,1.068,1.068,0,0,0,1.342.276l3.286-1.8a.474.474,0,0,1,.447,0l3.286,1.8a1.041,1.041,0,0,0,.506.132,1.074,1.074,0,0,0,.835-.409,1.147,1.147,0,0,0,.237-.921l-.628-3.819a.516.516,0,0,1,.139-.444Z" transform="translate(40.001 -1.047)" fill="#ffd500"/>
  <path id="star_3_4" data-name="star (3)" d="M14.846,7.924a1.163,1.163,0,0,0,.275-1.164,1.1,1.1,0,0,0-.879-.773l-3.674-.557a.482.482,0,0,1-.362-.274L8.563,1.68a1.069,1.069,0,0,0-1.952,0L4.968,5.155a.482.482,0,0,1-.362.274L.932,5.987a1.1,1.1,0,0,0-.879.773A1.163,1.163,0,0,0,.329,7.925l2.659,2.7a.516.516,0,0,1,.139.444L2.5,14.893a1.147,1.147,0,0,0,.237.921,1.068,1.068,0,0,0,1.342.276l3.286-1.8a.474.474,0,0,1,.447,0l3.286,1.8a1.041,1.041,0,0,0,.506.132,1.074,1.074,0,0,0,.835-.409,1.147,1.147,0,0,0,.237-.921l-.628-3.819a.516.516,0,0,1,.139-.444Z" transform="translate(60.001 -1.047)" fill="#ffd500"/>
  <path id="star_3_5" data-name="star (3)" d="M14.846,7.924a1.163,1.163,0,0,0,.275-1.164,1.1,1.1,0,0,0-.879-.773l-3.674-.557a.482.482,0,0,1-.362-.274L8.563,1.68a1.069,1.069,0,0,0-1.952,0L4.968,5.155a.482.482,0,0,1-.362.274L.932,5.987a1.1,1.1,0,0,0-.879.773A1.163,1.163,0,0,0,.329,7.925l2.659,2.7a.516.516,0,0,1,.139.444L2.5,14.893a1.147,1.147,0,0,0,.237.921,1.068,1.068,0,0,0,1.342.276l3.286-1.8a.474.474,0,0,1,.447,0l3.286,1.8a1.041,1.041,0,0,0,.506.132,1.074,1.074,0,0,0,.835-.409,1.147,1.147,0,0,0,.237-.921l-.628-3.819a.516.516,0,0,1,.139-.444Z" transform="translate(80.001 -1.047)" fill="#e1e4e6"/>
</svg>
