<svg xmlns="http://www.w3.org/2000/svg" xmlns:xlink="http://www.w3.org/1999/xlink" width="787.074" height="799.357" viewBox="0 0 787.074 799.357">
  <defs>
    <clipPath id="clip-path">
      <rect id="Rectangle_7" data-name="Rectangle 7" width="782.272" height="543.245" transform="translate(3263.076 524.698)" fill="none"/>
    </clipPath>
  </defs>
  <g id="up_logo" transform="translate(-3258.274 -524.698)">
    <g id="up_logo-2" data-name="up_logo">
      <g id="Group_9" data-name="Group 9">
        <g id="Group_8" data-name="Group 8" clip-path="url(#clip-path)">
          <path id="Path_32" data-name="Path 32" d="M3850.051,841.38c-3.047-27.946,10.262-44.7,15.452-50.128a60.514,60.514,0,0,0,118.609,4.5c4.83,8.722,13.19,26.528,11.2,45.632,50.582-.482,25.562-58.369-9.779-64.737-.362-2.957-.6-5.884-1.207-8.721-2.113-18.259-18.5-55.411-65.431-54.355-40.411.936-49.254,31.478-51.4,49.978a62.48,62.48,0,0,0-2.686,14.275c-52.725,9.206-46.81,62.595-14.759,63.56Zm46.689-77.11s5.191,1.872,5.191,18.741c8.964,3.079,24.417-26.286,24.417-26.286v23.118c10.018,2.686,41.135-.845,41.135-.845l1.057.936c0,.483.241,1.086.241,1.538a43.509,43.509,0,0,1-87.01.937c8.6-3.169,14.969-18.139,14.969-18.139Zm0,0" fill="#f62147"/>
        </g>
      </g>
      <path id="Path_33" data-name="Path 33" d="M3938.722,850.223h-46.931l-62.715,75.451,13.672,18.5,46.689-53.661,2.716,21.247-8.722,14.728,49.858,11.891,35.372-9.416-11.2-17.2,1.991-26.075,36.669,48.921L4020.3,928.6l-58.005-78.378Zm0,0" fill="#f62147"/>
      <path id="Path_34" data-name="Path 34" d="M3874.1,990.139l108.348-31.116-7.545-26.528L3936.94,943.45l-8.48,2.475-62.02,17.807Zm99.107,51.066" fill="#f62147"/>
      <path id="Path_35" data-name="Path 35" d="M3877.515,929.446l-6.247,26.861,5.07,1.177,53.993-15.543Zm0,0" fill="#f62147"/>
      <path id="Path_36" data-name="Path 36" d="M3944.124,973.419l40.2,9.417,6.247-26.77-5.885-1.418.935,3.44.966,3.169-3.2.845Zm50.372,350.636" fill="#f62147"/>
      <path id="Path_37" data-name="Path 37" d="M3653.185,986.728,3766,954.2l-8.029-27.465L3718.5,938.169l-56.136,16.146-17.082,4.95Zm246.715,53.345" fill="#55a699"/>
      <path id="Path_38" data-name="Path 38" d="M3774.36,951.236l-6.126-1.418.965,3.441.936,3.29-3.2.935-40.9,11.8,41.861,9.777Zm0,0" fill="#55a699"/>
      <path id="Path_39" data-name="Path 39" d="M3656.717,923.531l-6.609,27.827,5.432,1.3,56.106-16.147Zm0,0" fill="#55a699"/>
      <path id="Path_40" data-name="Path 40" d="M3649.866,770.034a55.125,55.125,0,1,0,110.249,0c0-18.983,6.609-36.306-8.029-46.205-8.721-6.006-47.382-8.843-58.821-8.843-13.551,0-31.237,11.076-40.8,19.224-12.012,10.14-2.595,18.984-2.595,35.824Zm16.75-5.281c10.141-1.9,16.992,1.389,16.992,1.389l16.961-8.241s-8.6,12.5-.815,8.241c17.2-5.766,36.428-3.291,46.205-1.389a39.114,39.114,0,0,1,.7,6.58c0,22.754-18.017,41.044-40.411,41.044-22.3,0-40.321-18.29-40.321-41.044a39.215,39.215,0,0,1,.694-6.58Zm0,0" fill="#55a699"/>
      <path id="Path_41" data-name="Path 41" d="M3806.441,913.631l-62.594-76.868h-72.855l-76.416,83.72,16.055,16.509L3665.2,890.3l.362,32.052,49.526,11.558,35.462-8.481.241-33.379,43.731,44.818Zm0,0" fill="#55a699"/>
      <path id="Path_42" data-name="Path 42" d="M3448.625,582.705a58.052,58.052,0,1,1-58.1-58.006,58.148,58.148,0,0,1,58.1,58.006Zm-5,0" fill="#365a7e"/>
      <path id="Path_43" data-name="Path 43" d="M3332.852,895.252,3302.793,961.5l18.169,8.239,33.952-74.485h49.647l32.534,74.395,18.259-8.029-29-66.366h21.1V865.193H3332.852l-40.652-162.7-29.124,7.3L3309.4,895.252Zm0,0" fill="#d35509"/>
      <path id="Path_44" data-name="Path 44" d="M3361.976,658.88,3352.2,856.229h140.64v122.14h52.242V815.547H3435.315l.362-98.328,56.346,52.815v-.121l4.588-1.991-8.24,10.623,96.065-7.786,83.477-107.412h-.573l-21.7-39.143-27.827,43.156-45.873,3.774-35.825,46.085-43.278,18.047-64.827-76.386Zm153.377,101.376,50.461-20.975-11.891-28.642,23.087-29.847,69.083-5.644-66.94,86.044-68.961,5.674Zm0,0" fill="#365a7e"/>
      <rect id="Rectangle_8" data-name="Rectangle 8" width="763.975" height="8.022" transform="translate(3258.274 1053.804)" fill="#70a0af"/>
    </g>
    <rect id="line_center_logo" width="763.975" height="3.492" transform="translate(3258.274 1067.943)" fill="#70a0af"/>
  </g>
</svg>
