<svg xmlns="http://www.w3.org/2000/svg" width="23.97" height="21.573" viewBox="0 0 23.97 21.573">
  <g id="camera" transform="translate(-2 -2)">
    <circle id="Ellipse_14" data-name="Ellipse 14" cx="3.835" cy="3.835" r="3.835" transform="translate(10.15 10.15)" fill="#ee4562"/>
    <path id="Path_89" data-name="Path 89" d="M10.389,2,8.2,4.4H4.4A2.4,2.4,0,0,0,2,6.794V21.176a2.4,2.4,0,0,0,2.4,2.4H23.573a2.4,2.4,0,0,0,2.4-2.4V6.794a2.4,2.4,0,0,0-2.4-2.4h-3.8L17.58,2Zm3.6,17.977a5.992,5.992,0,1,1,5.992-5.992A5.995,5.995,0,0,1,13.985,19.977Z" fill="#ee4562"/>
  </g>
</svg>
