<svg xmlns="http://www.w3.org/2000/svg" width="23.333" height="21" viewBox="0 0 23.333 21">
  <path id="exams" d="M21.778,21h0l0-.006c-.259-.38-1.551-2.317-1.551-3.1A1.539,1.539,0,0,1,21,16.549V9.608l1.556-.778v7.718a1.54,1.54,0,0,1,.778,1.34c0,.788-1.291,2.724-1.55,3.1l0,.006Zm-10.111-3.11c-3.86,0-7-1.745-7-3.889V10.773L10.6,13.742a1.518,1.518,0,0,0,.2.083,2.208,2.208,0,0,0,1.725,0,1.439,1.439,0,0,0,.2-.082l5.938-2.97V14C18.667,16.145,15.527,17.889,11.667,17.889Zm0-5.445a.794.794,0,0,1-.373-.1L.418,6.912a.777.777,0,0,1,0-1.378L11.3.093a.774.774,0,0,1,.74,0L22.916,5.532a.777.777,0,0,1,0,1.378l-.008,0L20.372,8.183a.982.982,0,0,0-.147-.093L13.81,4.821a.888.888,0,0,0-.408-.1.9.9,0,0,0-.41,1.7l5.4,2.75-6.354,3.177A.78.78,0,0,1,11.667,12.444Z" fill="#8890a6"/>
</svg>
