<svg xmlns="http://www.w3.org/2000/svg" width="20.568" height="18.618" viewBox="0 0 20.568 18.618">
  <g id="home" transform="translate(0.158 0.15)">
    <path id="home_1_" data-name="home (1)" d="M19.968,21.858,10.7,14.607a.954.954,0,0,0-1.149,0L.283,21.858a.619.619,0,0,0-.254.706.619.619,0,0,0,.635.4H2.51v8.931a.839.839,0,0,0,.839.839h4.34a.84.84,0,0,0,.839-.839v-4h3.2v4a.839.839,0,0,0,.839.839H16.9a.839.839,0,0,0,.839-.839V22.964h1.845a.6.6,0,0,0,.381-1.106Z" transform="translate(0 -14.415)" fill="#fff" stroke="#fff" stroke-width="0.3"/>
  </g>
</svg>
